<?xml version="1.0" encoding="utf-8"?>
<!-- Generator: Adobe Illustrator 23.0.2, SVG Export Plug-In . SVG Version: 6.00 Build 0)  -->
<svg version="1.1" id="Слой_1" xmlns="http://www.w3.org/2000/svg" xmlns:xlink="http://www.w3.org/1999/xlink" x="0px" y="0px"
	 viewBox="0 0 185.6 35.16" style="enable-background:new 0 0 185.6 35.16;" xml:space="preserve">
<style type="text/css">
	.st0{fill:#72767D;}
</style>
<path class="st0" d="M0,0.18h14.26c0,0,10.52,0.43,11.21,10.67v14.65c0,0-0.97,9.1-11.35,9.67H0v-8.25h12.74
	c0,0,3.74,0.14,4.01-3.41l0.14-10.95c0,0,0-4.12-4.15-3.98L8.31,8.71v14.08L0,15.25V0.18z"/>
<path class="st0" d="M160.12,0.18h14.26c0,0,10.52,0.43,11.21,10.67v14.65c0,0-0.97,9.1-11.35,9.67h-14.12v-8.25h12.74
	c0,0,3.74,0.14,4.01-3.41l0.14-10.95c0,0,0-4.12-4.15-3.98l-4.43,0.14v14.08l-8.31-7.54V0.18z"/>
<rect x="30.04" y="0.18" class="st0" width="8.44" height="34.98"/>
<path class="st0" d="M60.77,10.14l5.54-4.43c0,0-2.91-4.71-9.69-5.68c0,0-13.98-1.11-13.98,10.11c0,0-1.66,10.11,12.46,11.63
	c0,0,6.78,1.94,1.52,5.12c0,0-4.01,1.52-9-3.05l-5.47,4.98c0,0,5.19,9.83,18.48,5.05c0,0,8.44-2.77,5.68-14.05
	c0,0-1.8-5.33-9.69-6.23c0,0-4.85-0.35-5.54-3.18C51.08,10.41,51.64,3.91,60.77,10.14z"/>
<path class="st0" d="M88.01,11l7.16-2.86c0,0-3.01-7.16-9.81-7.89c0,0-13.6-1.61-15.47,9.76V26c0,0,1.71,10.27,15.31,9.18
	c0,0,6.7-0.62,9.97-7.73l-7.53-3.32c0,0-0.99,2.75-5.11,3.06c0,0-3.71-0.31-3.97-3.01L78.51,11.1c0,0,0.42-2.49,4.02-2.91
	C82.53,8.2,86.19,7.83,88.01,11z"/>
<path class="st0" d="M97.46,17.59v-7.32c0,0,0.36-9.66,13.81-10.1c0,0,11.52-0.1,13.76,8.71v16.08c0,0,0.73,9.54-13.78,10.22
	c0,0-12.54,0.47-13.78-10.22l8.46-0.88c0,0,0.47,2.65,3.63,3.01l2.49,0.05c0,0,3.79-0.05,4.67-3.22V11.68c0,0-0.21-3.43-5.19-3.58
	c0,0-4.1-0.31-5.45,3.17L97.46,17.59z"/>
<polygon class="st0" points="106.08,10.76 105.92,24.3 97.46,25.24 97.46,17.45 "/>
<g>
	<path class="st0" d="M129.7,0.18h15.37c0,0,10.43,0.62,10.8,10.97c0,0,1.3,8.91-6.59,12.21l9.14,11.8h-10.95l-7.74-11.11h-1.4
		v-7.68l5.74,0.11c0,0,3.19-0.55,3.24-3.93c0,0,0.31-3.11-3.24-4.02l-5.74-0.05l-8.62,0.05V0.18z"/>
	<polygon class="st0" points="138.31,22.8 138.31,35.16 129.7,35.16 129.7,5.53 138.31,5.47 	"/>
	<rect x="135.31" y="16.42" class="st0" width="3.97" height="7.64"/>
</g>
</svg>
